<svg xmlns="http://www.w3.org/2000/svg" xml:space="preserve" width="1500" height="1500" data-id="lg_NH1m6OyMKjLiJJQg1m" data-version="1"><path fill="#043f2d" stroke="transparent" d="M0 0h1500v1500H0z"/><g data-padding="20"><g transform="translate(-543.706 -556.91)scale(1.68712)"><path fill="#e9efe7" d="M692 779.084q-2.64 6.53-2.64 12.68 0 2.96.55 5.96.54 3.01 1.7 6.13-1.83-.45-3.41-.67-1.58-.23-3.12-.23-1.64 0-3.35.29-1.7.29-3.7.9l1.32-5.14q-.64 1.03-1.54 2.1-.9 1.08-2.14 1.95t-2.83 1.43-3.65.56q-3.09 0-5.68-1.48t-4.46-4.27q-1.86-2.8-2.91-6.87-1.04-4.07-1.04-9.25 0-3.45.64-6.84t1.86-6.47q1.23-3.07 3.03-5.69t4.08-4.54q2.29-1.91 5.07-2.99t6-1.08q2.93 0 5.12.6 2.19.59 3.79 1.58 1.61.98 2.66 2.25 1.04 1.27 1.65 2.65.62 1.38.87 2.75.26 1.37.26 2.56 0 1.7-.59 3.28-.6 1.58-1.66 2.77t-2.51 1.9q-1.45.7-3.19.7-1.8 0-3.12-.54-1.32-.55-2.18-1.43-.87-.89-1.31-1.98-.43-1.1-.43-2.19 0-.93.32-1.9.32-.96.9-1.8.19.67.55 1.04.35.37.71.54.38.19.86.22 1.1 0 1.56-.55.47-.54.47-1.25 0-.32-.14-.66-.15-.34-.44-.63t-.75-.48q-.47-.19-1.15-.19-.45 0-1.23.17-.79.18-1.71.7-.92.51-1.85 1.46t-1.7 2.52q-.78 1.58-1.26 3.87-.48 2.28-.48 5.43 0 2.61.43 4.57.44 1.96 1.21 3.28t1.83 1.98 2.32.66q1.19 0 1.96-.61t1.22-1.48.62-1.8q.16-.94.16-1.58 0-.03-.05-.45t-.31-.96q-.26-.55-.83-1.13-.58-.58-1.65-.97 3.8 0 7.63-.33 3.83-.34 7.66-1.05m19.49-4.98q-.99 0-1.8.57-.8.56-1.43 1.57-.63 1.02-1.09 2.43-.47 1.42-.76 3.12 0 2.74.13 5.54t.42 5.53q.29 2.74.75 5.34.47 2.61 1.14 4.96-.51-.04-1.19-.1-.57-.03-1.4-.07-.82-.03-1.88-.03-1.99 0-4.61.18-2.63.18-5.81.66.39-1.8.67-4.41.29-2.6.49-5.66.19-3.06.3-6.39.12-3.33.12-6.58 0-2.41-.07-4.73-.06-2.31-.18-4.37-.11-2.06-.3-3.8-.19-1.73-.45-2.99 2.6.45 4.74.63t3.85.18q1.09 0 1.93-.05.83-.05 1.45-.12.67-.09 1.22-.19-.39 1.61-.58 3.57 1.67-2.02 3.65-2.99 1.98-.96 3.72-.96 2.89 0 4.89 1.04 1.99 1.05 3.21 2.74 1.23 1.68 1.77 3.84.55 2.16.55 4.38 0 2.15-.61 4.21t-1.77 3.68q-1.16 1.63-2.86 2.63-1.71.99-3.86.99-1.9 0-3.24-.64-1.33-.64-2.2-1.67t-1.27-2.27-.4-2.46q0-1.29.37-2.51t1.07-2.22q.23.71.57 1.08.33.37.69.53.38.19.83.22 1.2 0 1.79-.54.6-.55.6-1.29 0-.36-.13-.81t-.47-.83q-.34-.39-.95-.66-.61-.28-1.61-.28m48.29 29.63q-.61-.06-1.41-.12-.68-.07-1.63-.1t-2.07-.03q-1.61 0-3.53.13-1.91.12-3.94.48l.13-9.04q-1.22 4.79-3.58 7.4-2.37 2.6-5.55 2.6-1 0-2.26-.25-1.25-.26-2.55-.98-1.31-.73-2.55-2.02-1.23-1.28-2.2-3.33-.96-2.04-1.54-4.95t-.58-6.9q0-5.41 1.09-9.25t2.8-6.29q1.71-2.44 3.76-3.57 2.06-1.13 4.03-1.13 1.67 0 3.04.47 1.36.47 2.42 1.19 1.07.72 1.84 1.62.77.91 1.25 1.81-.09-1.1-.29-2.34-.19-1.23-.45-2.55 2.09.41 4.25.54t3.99.13q2.19 0 3.54-.09.77-.04 1.41-.1-.35 1.61-.64 3.6-.29 2-.5 4.26-.21 2.27-.32 4.77-.11 2.49-.11 5.1 0 4.85.48 9.74t1.67 9.2m-13.22-18.43v-5.21q0-.87-.1-1.77-.09-.9-.43-1.64t-.98-1.21q-.65-.46-1.74-.46-1.16 0-1.91.8-.76.8-1.23 2.2-.46 1.4-.64 3.32-.18 1.91-.18 4.16 0 1.29.18 2.61t.6 2.4q.41 1.07 1.12 1.75t1.74.68q1.16 0 1.87-.81.7-.8 1.07-1.99t.5-2.5q.13-1.3.13-2.33m48.97 18.42q-.74-.06-1.68-.12-.8-.07-1.88-.1t-2.36-.03q-1.84 0-3.9.13-2.06.12-4.08.48.19-.39.42-1.61.22-1.22.43-2.7t.39-2.93q.17-1.45.27-2.25-.51 2.41-1.43 4.39t-2.14 3.38-2.74 2.17q-1.51.77-3.18.77-.77 0-1.9-.1-1.13-.09-2.4-.64t-2.54-1.69-2.28-3.21q-1.02-2.08-1.64-5.27-.63-3.18-.63-7.78 0-3.86.56-6.9.57-3.04 1.52-5.36.94-2.31 2.22-3.94 1.27-1.62 2.67-2.65 1.39-1.03 2.86-1.5 1.46-.47 2.81-.47 1.52 0 2.74.5t2.22 1.29 1.74 1.8 1.28 2.01l-.13-3.22q-.06-1.73-.16-3.5-.09-1.77-.24-3.49-.14-1.72-.32-3.2t-.4-2.61q-.23-1.13-.52-1.7 2.58.45 4.8.61t4.02.16q1.16 0 2.09-.05t1.58-.11q.77-.07 1.35-.16-.36 1.6-.65 4.19t-.5 5.84q-.2 3.25-.32 6.97-.11 3.71-.11 7.58 0 3.57.11 7.11.12 3.53.37 6.8.26 3.26.68 6.11t1 5m-13.23-18.43v-5.21q0-.87-.09-1.77-.1-.9-.44-1.64t-.98-1.21q-.64-.46-1.74-.46-.77 0-1.32.61-.54.61-.9 1.57-.35.97-.57 2.16-.23 1.19-.33 2.36-.09 1.18-.13 2.19-.03 1.01-.03 1.59 0 .87.08 2.14t.37 2.45q.29 1.17.89 2.01.59.84 1.62.84 1.16 0 1.87-.81.71-.8 1.08-1.99t.49-2.5q.13-1.3.13-2.33m43.53-11.93q0 2.42-.69 4.7-.69 2.29-2.43 4.06-1.74 1.76-4.68 2.83-2.94 1.06-7.48 1.06.13 1.57.66 2.64.53 1.06 1.27 1.7t1.58.97q.83.32 1.54.45t1.19.13h.48q2-.23 3.58-1.03.67-.33 1.31-.82.65-.5 1.18-1.19.53-.7.87-1.58.34-.89.4-2.04.84 2.09 1.17 3.9.34 1.82.34 3.4 0 2.89-1.04 5.32-1.05 2.43-2.88 4.2-1.84 1.77-4.36 2.75-2.53.98-5.49.98-2.89 0-5.58-.99-2.69-1-4.76-3.17-2.08-2.17-3.32-5.65-1.23-3.47-1.23-8.43 0-5.37 1.54-9.52t4.15-6.97q2.61-2.81 6.03-4.27 3.43-1.47 7.19-1.47 1.87 0 3.59.42t3.02 1.38q1.31.97 2.08 2.5.77 1.52.77 3.74m-15.41 7.34q.9-.03 2.09-.37t2.25-.95q1.07-.61 1.79-1.51t.72-2.06q0-.74-.51-1.19-.52-.45-1.32-.45-1.13 0-2.01.64-.89.65-1.51 1.61-.63.97-1.02 2.12-.38 1.16-.48 2.16m44.78-6.67q0 1.29-.51 2.32t-1.38 1.75-2.03 1.13q-1.16.4-2.45.4-1.47 0-2.52-.36-1.05-.35-1.77-.91-.72-.57-1.14-1.26t-.66-1.33q-.24-.65-.31-1.19-.06-.55-.06-.84.29.55.74.68.45.12.71.12.74 0 1.06-.38.32-.39.32-.81 0-.25-.13-.57-.13-.33-.45-.6t-.84-.47q-.51-.19-1.28-.19-.49 0-1.03.19-.55.2-.98.6-.44.4-.73 1-.29.59-.29 1.36 0 1.45.74 2.45t1.95 1.75q1.21.76 2.73 1.4 1.53.64 3.14 1.34 1.61.69 3.14 1.54t2.73 2.08q1.21 1.22 1.95 2.92.74 1.71.74 4.06 0 2.99-1.22 5.4-1.23 2.42-3.27 4.14t-4.74 2.63q-2.71.92-5.7.92-2.73 0-5.18-.74-2.44-.74-4.28-2.06-1.83-1.32-2.91-3.12t-1.08-3.89q0-1.58.52-2.75.51-1.18 1.43-1.95t2.15-1.16q1.24-.38 2.69-.38 1.06 0 2.12.22 1.07.23 2 .68t1.67 1.09q.74.65 1.19 1.48-.26-.06-.5-.09-.24-.04-.5-.04-.7 0-1.1.37-.41.37-.41 1.21 0 .9.74 1.51t1.64.61q.52 0 .97-.22.45-.23.77-.6t.5-.82.18-.93q0-.84-.57-1.8-.56-.97-1.59-1.61-2.03-1.26-3.83-2.16t-3.31-1.7q-1.51-.81-2.72-1.61t-2.04-1.88q-.84-1.08-1.29-2.54-.45-1.47-.45-3.56 0-2.48.98-4.58.98-2.11 2.82-3.65 1.83-1.55 4.5-2.43 2.67-.89 6.05-.89 3.44 0 5.81.81 2.36.8 3.82 2.05 1.47 1.26 2.11 2.8.64 1.55.64 3.06m3.13-7.66q.74.07 1.67.13.8.07 1.88.1t2.37.03q1.8 0 3.87-.11 2.08-.11 4.1-.47-.38.74-.66 1.98-.27 1.24-.46 2.88 1.32-2.9 3.52-4.5 2.2-1.61 5.58-1.61.74 0 1.88.09 1.15.1 2.42.65 1.27.54 2.54 1.69 1.27 1.14 2.28 3.23 1.02 2.09 1.64 5.26.63 3.17.63 7.8 0 3.86-.56 6.9t-1.51 5.36q-.95 2.31-2.22 3.94-1.27 1.62-2.67 2.65t-2.87 1.5q-1.46.47-2.81.47-1.58 0-2.91-.65-1.34-.64-2.37-1.78t-1.77-2.74q-.74-1.59-1.12-3.49.03 1.48.12 3.44.1 1.97.23 4.07.13 2.11.29 4.23.16 2.13.35 3.95.2 1.81.44 3.16.24 1.36.53 1.93-2.58-.45-4.79-.59-2.22-.15-4.03-.15-1.15 0-2.09.04-.93.03-1.57.09-.78.07-1.36.13.33-1.61.62-4.2t.49-5.82q.21-3.23.34-6.95.13-3.71.13-7.61 0-3.57-.11-7.11t-.37-6.79q-.26-3.24-.68-6.09t-.99-5.04m13.22 15.83v5.18q0 .87.09 1.77.1.9.44 1.64t.98 1.21q.64.46 1.74.46.77 0 1.32-.61.54-.61.9-1.57.35-.97.58-2.16.22-1.19.32-2.36.09-1.18.13-2.19.03-1.01.03-1.59 0-.87-.08-2.13-.08-1.25-.37-2.44t-.89-2.03q-.59-.84-1.62-.84-1.16 0-1.87.83-.7.82-1.07 1.99t-.5 2.51q-.13 1.33-.13 2.33m55.56 22.39q-1.74-.25-3.86-.38t-4.25-.13q-2.02 0-3.91.13-1.88.13-3.26.32.67-2.32 1.08-4.79.4-2.48.61-5.17.21-2.68.27-5.61t.06-6.18q0-.48-.04-1.29-.05-.8-.18-1.73-.13-.94-.37-1.89-.24-.94-.63-1.72-.38-.77-.95-1.25-.56-.48-1.3-.48-.48 0-.95.49-.47.5-.95 1.32t-.93 1.9-.87 2.27q.06 3.28.24 6.48t.48 6.15q.31 2.94.73 5.53t1 4.59q-.55-.04-1.29-.1l-1.53-.07q-.88-.03-2.01-.03-2.09 0-4.81.18t-5.9.66q.45-.9.8-2.49.35-1.6.61-3.61t.44-4.28q.17-2.26.29-4.55.11-2.28.16-4.42.04-2.14.08-3.86.03-1.72.03-2.91v-1.55q-.07-5.37-.29-9.97-.1-1.93-.23-3.89-.12-1.97-.32-3.67-.19-1.71-.43-2.99-.24-1.29-.56-1.93 2.6.45 4.82.61t3.99.16q1.16 0 2.09-.05t1.58-.11q.77-.07 1.35-.16-.26 1.12-.45 2.7-.19 1.57-.36 3.54-.16 1.96-.27 4.21t-.18 4.7q1.84-2.86 3.96-4.04 2.12-1.17 4.41-1.17 2.28 0 4.2 1.01 1.91 1.01 3.31 3.12t2.19 5.33q.79 3.21.79 7.62 0 3.02.01 6.26.02 3.23.15 6.34.13 3.1.45 5.9t.9 4.95m30.24-31.23q0 2.42-.69 4.7-.69 2.29-2.43 4.06-1.74 1.76-4.68 2.83-2.94 1.06-7.48 1.06.13 1.57.66 2.64.53 1.06 1.27 1.7t1.58.97q.83.32 1.54.45t1.19.13h.48q2-.23 3.57-1.03.68-.33 1.32-.82.65-.5 1.18-1.19.53-.7.87-1.58.33-.89.4-2.04.83 2.09 1.17 3.9.34 1.82.34 3.4 0 2.89-1.05 5.32-1.04 2.43-2.87 4.2-1.84 1.77-4.36 2.75-2.53.98-5.49.98-2.89 0-5.58-.99-2.69-1-4.76-3.17-2.08-2.17-3.32-5.65-1.23-3.47-1.23-8.43 0-5.37 1.54-9.52t4.15-6.97q2.61-2.81 6.03-4.27 3.43-1.47 7.19-1.47 1.87 0 3.59.42t3.02 1.38q1.31.97 2.08 2.5.77 1.52.77 3.74m-15.41 7.34q.9-.03 2.09-.37t2.25-.95q1.07-.61 1.79-1.51t.72-2.06q0-.74-.51-1.19-.52-.45-1.32-.45-1.13 0-2.01.64-.89.65-1.51 1.61-.63.97-1.02 2.12-.38 1.16-.48 2.16m35.65-6.6q-1 0-1.8.57-.81.56-1.44 1.57-.62 1.02-1.09 2.43-.47 1.42-.76 3.12 0 2.74.13 5.54t.42 5.53q.29 2.74.76 5.34.46 2.61 1.14 4.96-.52-.04-1.19-.1l-1.4-.07q-.82-.03-1.88-.03-2 0-4.62.18t-5.81.66q.39-1.8.68-4.41.29-2.6.48-5.66t.31-6.39q.11-3.33.11-6.58 0-2.41-.06-4.73-.07-2.31-.18-4.37t-.31-3.8q-.19-1.73-.45-2.99 2.61.45 4.75.63t3.84.18q1.1 0 1.93-.05.84-.05 1.45-.12.68-.09 1.22-.19-.38 1.61-.58 3.57 1.68-2.02 3.66-2.99 1.97-.96 3.71-.96 2.9 0 4.89 1.04 2 1.05 3.22 2.74 1.22 1.68 1.77 3.84.54 2.16.54 4.38 0 2.15-.61 4.21t-1.77 3.68q-1.15 1.63-2.86 2.63-1.7.99-3.86.99-1.9 0-3.23-.64-1.34-.64-2.21-1.67t-1.27-2.27-.4-2.46q0-1.29.37-2.51t1.08-2.22q.22.71.56 1.08t.69.53q.39.19.84.22 1.19 0 1.78-.54.6-.55.6-1.29 0-.36-.13-.81t-.47-.83q-.33-.39-.94-.66-.62-.28-1.61-.28m43.08-.74q0 2.42-.7 4.7-.69 2.29-2.43 4.06-1.73 1.76-4.68 2.83-2.94 1.06-7.48 1.06.13 1.57.66 2.64.53 1.06 1.27 1.7t1.58.97q.84.32 1.54.45.71.13 1.2.13h.48q1.99-.23 3.57-1.03.67-.33 1.32-.82.64-.5 1.17-1.19.53-.7.87-1.58.34-.89.4-2.04.84 2.09 1.18 3.9.33 1.82.33 3.4 0 2.89-1.04 5.32-1.05 2.43-2.88 4.2t-4.36 2.75q-2.52.98-5.48.98-2.9 0-5.59-.99-2.68-1-4.76-3.17-2.07-2.17-3.31-5.65-1.24-3.47-1.24-8.43 0-5.37 1.54-9.52 1.55-4.15 4.15-6.97 2.61-2.81 6.04-4.27 3.42-1.47 7.19-1.47 1.86 0 3.58.42 1.73.42 3.03 1.38 1.3.97 2.07 2.5.78 1.52.78 3.74m-15.42 7.34q.91-.03 2.1-.37t2.25-.95 1.78-1.51q.73-.9.73-2.06 0-.74-.52-1.19-.51-.45-1.32-.45-1.12 0-2.01.64-.88.65-1.51 1.61-.63.97-1.01 2.12-.39 1.16-.49 2.16"/><rect width="398.769" height="76.84" x="161.246" y="337.344" fill="none" rx="0" ry="0" transform="translate(493.03 409.54)"/><path fill="#e9efe7" d="m609.58 720.884 5.69-1.075c1.748-.336 1.748-2.845 0-3.18l-62.54-11.895a13.4 13.4 0 0 0-5.242 0l-62.54 11.872c-1.748.336-1.748 2.845 0 3.18l30.083 5.735-2.554 15.501-.336 2.016-.045.493v.067l.045.538a3.6 3.6 0 0 0 .918 1.881l.09.067.18.18.11.09.158.111.134.09.18.112.134.067.224.09.112.044.29.112h.046l9.363 2.375 6.183 1.568 2.016.515.985.27 14.269 3.605a11.2 11.2 0 0 0 5.152 0l22.624-5.734 10.192-2.599a3.4 3.4 0 0 0 2.24-1.814q.515-1.008.336-2.128l-.896-5.309-.874-5.286-1.142-6.922 17.427-3.315Zm-115.091 68.23a2.34 2.34 0 0 0 2.33 2.33h107.43v-4.66H496.84a2.333 2.333 0 0 0-2.352 2.33m109.782-11.692H496.863a2.34 2.34 0 1 0 0 4.681H604.27Zm1.502 39.558c0-1.277-1.053-2.33-2.352-2.33H496.013v4.682h107.43c1.277 0 2.33-1.053 2.33-2.352m-109.76 11.671h107.43a2.34 2.34 0 1 0 0-4.682h-107.43Z"/><path fill="#e9efe7" d="M605.683 798.097H493.459a4.704 4.704 0 0 1-3.584-4.525v-18.704c0-2.576 2.106-4.66 4.704-4.66h112.067a4.682 4.682 0 0 0 0-9.34H494.579a14.02 14.02 0 0 0-14 14.022v18.682c0 7.728 6.272 14 14 14h112.224c2.038.493 3.584 2.33 3.584 4.525v18.681a4.704 4.704 0 0 1-4.704 4.682H493.638a4.682 4.682 0 0 0 0 9.34h112.045a14.02 14.02 0 0 0 14-14.022v-18.68c0-7.729-6.272-14-14-14"/></g><path fill="transparent" stroke="transparent" stroke-width="1.748" d="M250 627.622h1000v244.756H250z"/></g></svg>